<svg width="1440" height="1024" viewBox="0 0 1440 1024" fill="none" xmlns="http://www.w3.org/2000/svg">
<rect width="1440" height="1024" fill="url(#paint0_linear)"/>
<path d="M969.5 422.206C853.9 289.742 1052.33 85.2085 1166 -0.5H1440V1024.5H517.5C711.9 938.858 830.833 846.08 866 810.396C948.667 736.193 1085.1 554.671 969.5 422.206Z" fill="white"/>
<g clip-path="url(#clip0)">
<path d="M622.061 271.153H496.905V273.036H622.061V271.153Z" fill="#F2F2F2"/>
<path d="M532.664 254.211H530.876V271.624H532.664V254.211Z" fill="#F2F2F2"/>
<path d="M587.196 254.211H585.409V271.624H587.196V254.211Z" fill="#F2F2F2"/>
<path d="M788.34 313.508H663.184V315.39H788.34V313.508Z" fill="#F2F2F2"/>
<path d="M698.943 296.566H697.155V313.978H698.943V296.566Z" fill="#F2F2F2"/>
<path d="M753.475 296.566H751.688V313.978H753.475V296.566Z" fill="#F2F2F2"/>
<path d="M775.825 750.23H650.669V752.113H775.825V750.23Z" fill="#F2F2F2"/>
<path d="M686.427 733.289H684.639V750.701H686.427V733.289Z" fill="#F2F2F2"/>
<path d="M740.96 733.289H739.172V750.701H740.96V733.289Z" fill="#F2F2F2"/>
<path d="M562.165 448.101H437.009V449.984H562.165V448.101Z" fill="#F2F2F2"/>
<path d="M472.768 431.159H470.98V448.572H472.768V431.159Z" fill="#F2F2F2"/>
<path d="M527.3 431.159H525.512V448.572H527.3V431.159Z" fill="#F2F2F2"/>
<path d="M601.5 674.933H476.344V676.816H601.5V674.933Z" fill="#F2F2F2"/>
<path d="M512.103 657.992H510.315V675.404H512.103V657.992Z" fill="#F2F2F2"/>
<path d="M566.635 657.992H564.847V675.404H566.635V657.992Z" fill="#F2F2F2"/>
<path d="M801.75 606.225H676.594V608.107H801.75V606.225Z" fill="#F2F2F2"/>
<path d="M712.353 589.283H710.565V606.695H712.353V589.283Z" fill="#F2F2F2"/>
<path d="M766.885 589.283H765.097V606.695H766.885V589.283Z" fill="#F2F2F2"/>
<path d="M387.672 807.904H175.992V806.301H386.149V728.538H193.787L184.442 708.042L185.815 707.348L194.745 726.935H387.672V807.904Z" fill="#2F2E41"/>
<path d="M204.165 847.186C212.996 847.186 220.155 839.649 220.155 830.351C220.155 821.053 212.996 813.516 204.165 813.516C195.334 813.516 188.174 821.053 188.174 830.351C188.174 839.649 195.334 847.186 204.165 847.186Z" fill="#3F3D56"/>
<path d="M361.783 847.186C370.614 847.186 377.773 839.649 377.773 830.351C377.773 821.053 370.614 813.516 361.783 813.516C352.952 813.516 345.793 821.053 345.793 830.351C345.793 839.649 352.952 847.186 361.783 847.186Z" fill="#3F3D56"/>
<path d="M547.574 483.225C553.041 483.225 557.473 478.559 557.473 472.804C557.473 467.048 553.041 462.382 547.574 462.382C542.108 462.382 537.676 467.048 537.676 472.804C537.676 478.559 542.108 483.225 547.574 483.225Z" fill="#3F3D56"/>
<path d="M410.312 702.083H172.382L120.9 524.913H463.331L463.02 525.955L410.312 702.083ZM173.509 700.48H409.195L461.255 526.516H122.958L173.509 700.48Z" fill="#2F2E41"/>
<path d="M391.739 692.864H182.757L137.538 535.735H438.307L438.034 536.66L391.739 692.864Z" fill="#F2F2F2"/>
<path d="M467.598 509.084L466.125 508.673L476.174 468.795H534.63V470.399H477.346L467.598 509.084Z" fill="#2F2E41"/>
<path d="M446.22 578.625H137.537V580.228H446.22V578.625Z" fill="#2F2E41"/>
<path d="M428.542 637.695H154.702V639.299H428.542V637.695Z" fill="#2F2E41"/>
<path d="M292.873 525.714H291.35V701.281H292.873V525.714Z" fill="#2F2E41"/>
<path d="M361.055 525.664L350.123 701.227L351.643 701.331L362.575 525.769L361.055 525.664Z" fill="#2F2E41"/>
<path d="M223.199 525.662L221.679 525.766L232.548 701.334L234.068 701.229L223.199 525.662Z" fill="#2F2E41"/>
<path d="M865 848.203H64V850.086H865V848.203Z" fill="#2F2E41"/>
<path d="M596.281 205.238C596.281 205.238 609.35 244.399 601.307 250.423C593.265 256.448 628.45 305.65 628.45 305.65L670.671 293.6L647.55 252.432C647.55 252.432 644.534 211.263 644.534 205.238C644.534 199.214 596.281 205.238 596.281 205.238Z" fill="#A0616A"/>
<path opacity="0.1" d="M596.281 205.238C596.281 205.238 609.35 244.399 601.307 250.423C593.265 256.448 628.45 305.65 628.45 305.65L670.671 293.6L647.55 252.432C647.55 252.432 644.534 211.263 644.534 205.238C644.534 199.214 596.281 205.238 596.281 205.238Z" fill="black"/>
<path d="M574.346 484.381C574.346 484.381 570.531 534.587 574.346 560.694C578.161 586.801 583.883 659.097 583.883 659.097C583.883 659.097 583.883 795.656 604.865 797.664C625.846 799.672 641.106 801.681 643.013 793.648C644.921 785.615 633.476 781.598 639.198 777.582C644.921 773.565 646.828 759.508 639.198 743.442C631.569 727.376 639.198 564.71 639.198 564.71L675.439 667.13C675.439 667.13 679.254 751.475 683.069 763.524C686.884 775.574 679.254 797.664 692.606 799.672C705.958 801.68 721.218 789.631 728.848 785.615C736.477 781.598 717.403 781.598 721.218 779.59C725.033 777.582 736.477 771.557 732.662 769.549C728.848 767.541 725.033 671.146 725.033 671.146C725.033 671.146 714.542 465.303 701.19 457.27C687.838 449.238 679.254 463.074 679.254 463.074L574.346 484.381Z" fill="#2F2E41"/>
<path d="M608.679 789.631V805.697C608.679 805.697 591.513 849.369 608.679 849.369C625.846 849.369 639.198 853.894 639.198 847.87V793.648L608.679 789.631Z" fill="#2F2E41"/>
<path d="M721.218 789.603V805.668C721.218 805.668 738.385 849.34 721.218 849.34C704.051 849.34 690.699 853.866 690.699 847.841V793.619L721.218 789.603Z" fill="#2F2E41"/>
<path d="M622.985 234.358C641.947 234.358 657.319 218.174 657.319 198.21C657.319 178.246 641.947 162.062 622.985 162.062C604.023 162.062 588.651 178.246 588.651 198.21C588.651 218.174 604.023 234.358 622.985 234.358Z" fill="#A0616A"/>
<path d="M612.494 265.485C612.494 265.485 622.031 295.608 637.291 289.584L652.55 283.559L679.254 476.348C679.254 476.348 658.273 508.48 627.754 488.398C597.235 468.316 612.494 265.485 612.494 265.485Z" fill="#6C63FF"/>
<path d="M639.198 259.46L647.782 240.382C647.782 240.382 698.329 265.485 705.958 273.518C713.588 281.551 713.588 293.6 713.588 293.6L700.236 343.806C700.236 343.806 704.051 454.258 704.051 458.275C704.051 462.291 717.403 484.381 707.866 476.349C698.329 468.316 696.421 460.283 688.792 472.332C681.162 484.381 663.995 498.439 663.995 498.439L639.198 259.46Z" fill="#3F3D56"/>
<path d="M705.958 404.052L700.236 460.283C700.236 460.283 665.902 492.414 673.532 494.422C681.162 496.431 684.977 488.398 684.977 488.398C684.977 488.398 698.329 502.455 705.958 494.422C713.588 486.39 732.662 410.077 732.662 410.077L705.958 404.052Z" fill="#A0616A"/>
<path d="M623.717 147.122C616.105 146.836 607.96 146.694 601.543 151.012C598.59 153.18 596 155.849 593.879 158.911C587.629 167.23 582.228 177.697 584.55 188.018L587.247 186.911C587.246 189.666 586.665 192.387 585.543 194.876C585.923 193.713 587.195 195.593 586.854 196.769L583.884 207.028C588.767 205.144 594.841 208.96 595.584 214.379C595.924 202.462 597.098 188.797 606.28 181.819C610.91 178.3 616.77 177.226 622.409 176.272C627.61 175.392 633.063 174.553 638.045 176.356C643.027 178.159 647.27 183.523 646.14 188.941C648.437 188.108 651.006 189.793 652.142 192.055C653.277 194.316 653.337 196.984 653.371 199.542C655.82 201.364 658.606 197.746 659.604 194.769C661.947 187.781 664.029 180.343 662.767 173.053C661.505 165.762 655.862 158.795 648.824 158.771C649.678 157.783 650.134 156.484 650.095 155.148L644.294 154.632C645.767 154.413 647.121 153.661 648.125 152.505C645.796 155.204 627.483 147.264 623.717 147.122Z" fill="#2F2E41"/>
<path d="M622.032 253.436C622.032 253.436 606.504 237.416 600.916 238.397C595.327 239.378 587.698 253.436 587.698 253.436C587.698 253.436 541.919 269.502 543.827 285.567C545.734 301.633 566.716 379.954 566.716 379.954C566.716 379.954 583.883 474.34 568.623 484.381C553.364 494.422 641.106 520.529 643.013 508.48C644.921 496.431 648.736 375.937 643.013 357.863C637.291 339.789 622.032 253.436 622.032 253.436Z" fill="#3F3D56"/>
<path d="M688.792 285.567H712.377C712.377 285.567 728.848 361.88 730.755 369.913C732.663 377.946 736.477 416.102 734.57 416.102C732.662 416.102 694.514 408.069 694.514 414.094L688.792 285.567Z" fill="#3F3D56"/>
<path d="M687.993 474.542H597.702C588.891 431.867 588.155 390.636 597.702 351.243H687.993C673.422 389.928 672.512 430.876 687.993 474.542Z" fill="#F2F2F2"/>
<path d="M560.994 422.126L587.698 434.176C587.698 434.176 639.198 442.209 639.198 420.118C639.198 398.028 587.698 410.077 587.698 410.077L570.53 404.298L560.994 422.126Z" fill="#A0616A"/>
<path d="M566.716 273.518L543.827 279.543L526.66 385.978C526.66 385.978 520.938 414.094 530.475 416.102C540.012 418.11 566.716 434.176 566.716 434.176C566.716 434.176 570.531 404.053 578.161 404.053L559.086 387.987L570.531 317.699L566.716 273.518Z" fill="#3F3D56"/>
<path d="M243.017 479.161H117.861V481.044H243.017V479.161Z" fill="#F2F2F2"/>
<path d="M153.619 462.219H151.832V479.632H153.619V462.219Z" fill="#F2F2F2"/>
<path d="M208.152 462.219H206.364V479.632H208.152V462.219Z" fill="#F2F2F2"/>
<path d="M286.821 200.562H161.665V202.445H286.821V200.562Z" fill="#F2F2F2"/>
<path d="M252.851 201.974H251.063V219.387H252.851V201.974Z" fill="#F2F2F2"/>
<path d="M198.318 201.974H196.53V219.387H198.318V201.974Z" fill="#F2F2F2"/>
<path d="M412.872 385.981H287.715V387.864H412.872V385.981Z" fill="#F2F2F2"/>
<path d="M378.901 387.393H377.113V404.805H378.901V387.393Z" fill="#F2F2F2"/>
<path d="M324.368 387.393H322.58V404.805H324.368V387.393Z" fill="#F2F2F2"/>
<path d="M200.106 385.04H74.9498V386.922H200.106V385.04Z" fill="#F2F2F2"/>
<path d="M166.135 386.452H164.347V403.864H166.135V386.452Z" fill="#F2F2F2"/>
<path d="M111.603 386.452H109.815V403.864H111.603V386.452Z" fill="#F2F2F2"/>
<path d="M350.294 290.919H225.137V292.801H350.294V290.919Z" fill="#F2F2F2"/>
<path d="M260.896 273.977H259.108V291.389H260.896V273.977Z" fill="#F2F2F2"/>
<path d="M315.429 273.977H313.641V291.389H315.429V273.977Z" fill="#F2F2F2"/>
<path d="M151.049 380.659C141.829 366.465 137.115 349.565 137.584 332.38C137.592 331.984 137.47 331.596 137.238 331.284C137.005 330.971 136.678 330.753 136.31 330.666V327.662H120.41V330.624H120.191C119.976 330.625 119.764 330.669 119.566 330.756C119.368 330.843 119.189 330.969 119.037 331.129C118.886 331.288 118.766 331.478 118.685 331.686C118.603 331.894 118.561 332.118 118.561 332.343C118.561 332.385 118.563 332.426 118.566 332.468C119.818 350.838 115.588 367.313 105.876 381.891C105.317 382.729 105.032 383.734 105.062 384.757L106.801 441.337C106.843 442.599 107.346 443.795 108.206 444.676C109.066 445.557 110.216 446.054 111.417 446.064H147.38C148.594 446.054 149.756 445.545 150.619 444.647C151.482 443.748 151.977 442.531 151.999 441.254L152.669 386.319C152.689 384.303 152.124 382.328 151.049 380.659V380.659Z" fill="#E6E6E6"/>
<path d="M145.356 399.453H114.053C113.589 399.453 113.131 399.558 112.71 399.762C112.289 399.965 111.915 400.262 111.613 400.632C111.312 401.002 111.09 401.437 110.962 401.905C110.835 402.374 110.806 402.866 110.876 403.348L115.606 435.696H142.769L148.515 403.457C148.602 402.969 148.585 402.466 148.467 401.985C148.348 401.504 148.131 401.057 147.829 400.675C147.528 400.292 147.15 399.985 146.722 399.773C146.295 399.562 145.828 399.453 145.356 399.453V399.453Z" fill="white"/>
<path d="M285.626 453.348H195.884C202.158 417.66 200.714 374.566 195.884 328.22H285.626C280.924 374.566 279.519 417.66 285.626 453.348Z" fill="#E6E6E6"/>
<path d="M241.295 410.122C253.238 410.122 262.92 399.936 262.92 387.372C262.92 374.807 253.238 364.621 241.295 364.621C229.352 364.621 219.671 374.807 219.671 387.372C219.671 399.936 229.352 410.122 241.295 410.122Z" fill="white"/>
<path d="M336.444 461.311H246.702C252.976 425.623 251.532 382.528 246.702 336.183H336.444C331.742 382.528 330.336 425.623 336.444 461.311Z" fill="#E6E6E6"/>
<path d="M292.113 418.085C304.056 418.085 313.738 407.899 313.738 395.334C313.738 382.77 304.056 372.584 292.113 372.584C280.17 372.584 270.489 382.77 270.489 395.334C270.489 407.899 280.17 418.085 292.113 418.085Z" fill="white"/>
<path d="M336.444 455.623H246.702C252.976 419.935 251.532 376.841 246.702 330.495H336.444C331.742 376.841 330.336 419.935 336.444 455.623Z" fill="#E6E6E6"/>
<path d="M292.113 412.397C304.056 412.397 313.738 402.211 313.738 389.647C313.738 377.082 304.056 366.896 292.113 366.896C280.17 366.896 270.489 377.082 270.489 389.647C270.489 402.211 280.17 412.397 292.113 412.397Z" fill="white"/>
<path d="M336.444 461.311H246.702C252.976 425.623 251.532 382.528 246.702 336.183H336.444C331.742 382.528 330.336 425.623 336.444 461.311Z" fill="#E6E6E6"/>
<path d="M292.113 418.085C304.056 418.085 313.738 407.899 313.738 395.334C313.738 382.77 304.056 372.584 292.113 372.584C280.17 372.584 270.489 382.77 270.489 395.334C270.489 407.899 280.17 418.085 292.113 418.085Z" fill="white"/>
<path d="M356.987 446.523H62.8921V480.649H356.987V446.523Z" fill="#E6E6E6"/>
<path d="M497.233 151H483.644C483.166 151 482.708 151.19 482.37 151.528C482.032 151.866 481.842 152.324 481.842 152.802V158.766C481.842 159.244 482.032 159.702 482.37 160.04C482.708 160.378 483.166 160.568 483.644 160.568H485.896V169.505H494.981V160.568H497.233C497.711 160.568 498.169 160.378 498.507 160.04C498.845 159.702 499.034 159.244 499.034 158.766V152.802C499.034 152.324 498.845 151.866 498.507 151.528C498.169 151.19 497.711 151 497.233 151V151Z" fill="#E6E6E6"/>
<path d="M510.844 205.588C502.521 193.41 498.267 178.911 498.69 164.167C498.697 163.827 498.587 163.494 498.377 163.226C498.168 162.958 497.872 162.771 497.54 162.697V160.119H483.188V162.661H482.99C482.797 162.661 482.605 162.699 482.427 162.774C482.248 162.848 482.086 162.957 481.949 163.093C481.813 163.23 481.704 163.393 481.631 163.572C481.557 163.75 481.519 163.942 481.519 164.135C481.519 164.171 481.521 164.207 481.523 164.242C482.654 180.003 478.836 194.138 470.07 206.645C469.565 207.364 469.307 208.227 469.335 209.104L470.904 257.647C470.942 258.73 471.396 259.756 472.173 260.512C472.949 261.268 473.987 261.694 475.071 261.703H507.532C508.628 261.694 509.677 261.257 510.455 260.487C511.234 259.716 511.681 258.671 511.701 257.576L512.306 210.445C512.324 208.715 511.814 207.02 510.844 205.588V205.588Z" fill="#E6E6E6"/>
<path d="M505.705 221.712H477.45C477.032 221.712 476.618 221.803 476.238 221.977C475.858 222.152 475.521 222.407 475.248 222.724C474.976 223.042 474.775 223.414 474.66 223.817C474.546 224.219 474.519 224.641 474.583 225.054L478.852 252.808H503.37L508.556 225.148C508.635 224.729 508.62 224.298 508.513 223.885C508.406 223.473 508.21 223.089 507.937 222.761C507.665 222.433 507.324 222.169 506.938 221.987C506.552 221.806 506.131 221.712 505.705 221.712V221.712Z" fill="white"/>
<path d="M406.873 265.024H325.869C331.533 234.406 330.23 197.432 325.869 157.67H406.873C402.628 197.433 401.36 234.406 406.873 265.024Z" fill="#E6E6E6"/>
<path d="M366.859 227.938C377.639 227.938 386.378 219.199 386.378 208.419C386.378 197.639 377.639 188.901 366.859 188.901C356.079 188.901 347.34 197.639 347.34 208.419C347.34 219.199 356.079 227.938 366.859 227.938Z" fill="white"/>
<path d="M545.457 262.096H280V291.375H545.457V262.096Z" fill="#E6E6E6"/>
<path d="M771.857 235.256H765.411C765.185 235.256 764.967 235.346 764.807 235.506C764.647 235.666 764.557 235.884 764.557 236.11V238.94C764.557 239.166 764.647 239.384 764.807 239.544C764.967 239.704 765.185 239.794 765.411 239.794H766.48V244.033H770.789V239.794H771.857C772.084 239.794 772.301 239.704 772.462 239.544C772.622 239.384 772.712 239.166 772.712 238.94V236.11C772.712 235.884 772.622 235.666 772.462 235.506C772.301 235.346 772.084 235.256 771.857 235.256Z" fill="#E6E6E6"/>
<path d="M778.314 261.149C774.366 255.373 772.348 248.495 772.548 241.501C772.552 241.34 772.5 241.182 772.4 241.055C772.301 240.928 772.16 240.839 772.003 240.804V239.581H765.195V240.787H765.101C765.01 240.787 764.919 240.805 764.834 240.84C764.749 240.876 764.672 240.927 764.608 240.992C764.543 241.057 764.492 241.134 764.457 241.219C764.422 241.304 764.404 241.395 764.404 241.486C764.404 241.503 764.404 241.52 764.406 241.537C765.034 248.673 763.109 255.801 758.973 261.651C758.733 261.991 758.611 262.401 758.624 262.817L759.369 285.843C759.386 286.357 759.602 286.844 759.97 287.202C760.338 287.56 760.831 287.763 761.345 287.767H776.743C777.263 287.763 777.76 287.556 778.129 287.19C778.499 286.824 778.711 286.329 778.72 285.809L779.007 263.453C779.016 262.632 778.774 261.829 778.314 261.149V261.149Z" fill="#E6E6E6"/>
<path d="M776.097 269.613H761.405V276.959H776.097V269.613Z" fill="white"/>
<path d="M801.863 235.256H795.417C795.191 235.256 794.973 235.346 794.813 235.506C794.653 235.666 794.563 235.884 794.563 236.11V238.94C794.563 239.166 794.653 239.384 794.813 239.544C794.973 239.704 795.191 239.794 795.417 239.794H796.485V244.033H800.795V239.794H801.863C802.09 239.794 802.307 239.704 802.467 239.544C802.628 239.384 802.718 239.166 802.718 238.94V236.11C802.718 235.998 802.696 235.887 802.653 235.783C802.61 235.679 802.547 235.585 802.467 235.506C802.388 235.427 802.294 235.364 802.19 235.321C802.086 235.278 801.975 235.256 801.863 235.256V235.256Z" fill="#E6E6E6"/>
<path d="M808.319 261.149C804.372 255.373 802.353 248.495 802.554 241.501C802.558 241.34 802.505 241.182 802.406 241.055C802.306 240.928 802.166 240.839 802.008 240.804V239.581H795.201V240.787H795.107C795.015 240.787 794.924 240.805 794.84 240.84C794.755 240.876 794.678 240.927 794.613 240.992C794.548 241.057 794.497 241.134 794.462 241.219C794.427 241.304 794.409 241.395 794.409 241.486C794.409 241.503 794.41 241.52 794.411 241.537C795.04 248.673 793.114 255.801 788.978 261.651C788.739 261.991 788.617 262.401 788.63 262.817L789.374 285.843C789.392 286.357 789.608 286.844 789.976 287.202C790.344 287.56 790.837 287.763 791.35 287.767H806.748C807.268 287.763 807.766 287.556 808.135 287.19C808.504 286.824 808.716 286.329 808.726 285.809L809.013 263.453C809.021 262.632 808.779 261.829 808.319 261.149V261.149Z" fill="#E6E6E6"/>
<path d="M806.103 269.613H791.411V276.959H806.103V269.613Z" fill="white"/>
<path d="M831.869 235.256H825.423C825.196 235.256 824.979 235.346 824.818 235.506C824.658 235.666 824.568 235.884 824.568 236.11V238.94C824.568 239.166 824.658 239.384 824.818 239.544C824.979 239.704 825.196 239.794 825.423 239.794H826.491V244.033H830.8V239.794H831.869C832.095 239.794 832.313 239.704 832.473 239.544C832.633 239.384 832.723 239.166 832.723 238.94V236.11C832.723 235.884 832.633 235.666 832.473 235.506C832.313 235.346 832.095 235.256 831.869 235.256V235.256Z" fill="#E6E6E6"/>
<path d="M838.325 261.149C834.377 255.373 832.359 248.495 832.56 241.501C832.563 241.34 832.511 241.182 832.411 241.055C832.312 240.928 832.172 240.839 832.014 240.804V239.581H825.206V240.787H825.113C825.021 240.787 824.93 240.805 824.845 240.84C824.761 240.876 824.684 240.927 824.619 240.992C824.554 241.057 824.503 241.134 824.468 241.219C824.433 241.304 824.415 241.395 824.415 241.486C824.415 241.503 824.416 241.52 824.417 241.537C825.045 248.673 823.12 255.801 818.984 261.651C818.745 261.991 818.622 262.401 818.635 262.817L819.38 285.843C819.398 286.357 819.613 286.844 819.982 287.202C820.35 287.56 820.842 287.763 821.356 287.767H836.754C837.274 287.763 837.771 287.556 838.141 287.19C838.51 286.824 838.722 286.329 838.732 285.809L839.018 263.453C839.027 262.632 838.785 261.829 838.325 261.149V261.149Z" fill="#E6E6E6"/>
<path d="M836.109 269.613H821.417V276.959H836.109V269.613Z" fill="white"/>
<path d="M990.457 286.193H725V315.471H990.457V286.193Z" fill="#E6E6E6"/>
</g>
<defs>
<linearGradient id="paint0_linear" x1="777" y1="184.5" x2="559.5" y2="995" gradientUnits="userSpaceOnUse">
<stop stop-color="#2E42F1"/>
<stop offset="0.270833" stop-color="#7C35ED" stop-opacity="0.9"/>
<stop offset="0.526042" stop-color="#9032EC" stop-opacity="0.9"/>
<stop offset="0.791667" stop-color="#A130EB" stop-opacity="0.9"/>
<stop offset="1" stop-color="#CE29E9"/>
</linearGradient>
<clipPath id="clip0">
<rect width="801" height="704" fill="white" transform="translate(64 147)"/>
</clipPath>
</defs>
</svg>
